<svg width="493" height="354" viewBox="0 0 493 354" fill="none" xmlns="http://www.w3.org/2000/svg">
<mask id="mask0" mask-type="alpha" maskUnits="userSpaceOnUse" x="0" y="0" width="493" height="354">
<path d="M246.302 0L492.603 354H0L246.302 0Z" fill="#C4C4C4"/>
</mask>
<g mask="url(#mask0)">
<rect x="151.56" width="188.367" height="125.578" fill="#E8CFA3"/>
<path d="M214.495 103.501H216.893L219.103 95.8935H219.194L221.41 103.501H223.808L227.137 91.8651H224.45L222.524 99.9674H222.421L220.302 91.8651H218.001L215.876 99.9503H215.779L213.853 91.8651H211.166L214.495 103.501ZM228.409 103.501H230.829V94.7742H228.409V103.501ZM229.624 93.6492C230.346 93.6492 230.937 93.0981 230.937 92.4219C230.937 91.7515 230.346 91.2003 229.624 91.2003C228.909 91.2003 228.318 91.7515 228.318 92.4219C228.318 93.0981 228.909 93.6492 229.624 93.6492ZM240.029 97.2628C239.813 95.6549 238.518 94.6606 236.313 94.6606C234.08 94.6606 232.609 95.6946 232.614 97.3765C232.609 98.6833 233.433 99.5299 235.137 99.8708L236.649 100.172C237.41 100.325 237.757 100.604 237.768 101.041C237.757 101.558 237.194 101.928 236.347 101.928C235.484 101.928 234.91 101.558 234.762 100.848L232.382 100.973C232.609 102.644 234.029 103.672 236.342 103.672C238.603 103.672 240.222 102.519 240.228 100.797C240.222 99.5356 239.399 98.7799 237.705 98.4333L236.126 98.1151C235.313 97.939 235.012 97.6606 235.018 97.2401C235.012 96.7174 235.603 96.3765 236.353 96.3765C237.194 96.3765 237.694 96.8367 237.813 97.3992L240.029 97.2628ZM244.968 103.644C246.377 103.644 247.11 102.831 247.445 102.104H247.548V103.501H249.934V91.8651H247.519V96.2401H247.445C247.122 95.5299 246.423 94.6606 244.962 94.6606C243.048 94.6606 241.428 96.1492 241.428 99.1492C241.428 102.07 242.98 103.644 244.968 103.644ZM245.735 101.717C244.548 101.717 243.9 100.661 243.9 99.1378C243.9 97.6265 244.536 96.5867 245.735 96.5867C246.911 96.5867 247.57 97.581 247.57 99.1378C247.57 100.695 246.9 101.717 245.735 101.717ZM255.867 103.672C258.515 103.672 260.163 101.859 260.163 99.1719C260.163 96.4674 258.515 94.6606 255.867 94.6606C253.22 94.6606 251.572 96.4674 251.572 99.1719C251.572 101.859 253.22 103.672 255.867 103.672ZM255.879 101.797C254.657 101.797 254.032 100.678 254.032 99.1549C254.032 97.6321 254.657 96.5071 255.879 96.5071C257.078 96.5071 257.703 97.6321 257.703 99.1549C257.703 100.678 257.078 101.797 255.879 101.797ZM261.737 103.501H264.157V98.2628C264.157 97.2969 264.771 96.6549 265.578 96.6549C266.373 96.6549 266.907 97.2003 266.907 98.0583V103.501H269.254V98.1719C269.254 97.2685 269.771 96.6549 270.651 96.6549C271.424 96.6549 272.004 97.1378 272.004 98.1094V103.501H274.418V97.6321C274.418 95.7401 273.293 94.6606 271.668 94.6606C270.39 94.6606 269.396 95.314 269.038 96.314H268.947C268.668 95.3026 267.776 94.6606 266.578 94.6606C265.401 94.6606 264.509 95.2856 264.146 96.314H264.043V94.7742H261.737V103.501Z" fill="black"/>
<rect x="28.0952" y="125.492" width="436.609" height="76.7936" fill="#EFDFC0"/>
<path d="M201.652 164.841H204.112V161.534L205.322 160.057L208.51 164.841H211.453L207.084 158.415L211.402 153.205H208.453L204.266 158.336H204.112V153.205H201.652V164.841ZM215.058 159.796C215.064 158.671 215.734 158.012 216.712 158.012C217.683 158.012 218.268 158.648 218.263 159.716V164.841H220.683V159.284C220.683 157.25 219.49 156 217.672 156C216.376 156 215.439 156.637 215.047 157.654H214.945V156.114H212.638V164.841H215.058V159.796ZM226.534 165.012C229.182 165.012 230.83 163.199 230.83 160.512C230.83 157.807 229.182 156 226.534 156C223.886 156 222.239 157.807 222.239 160.512C222.239 163.199 223.886 165.012 226.534 165.012ZM226.545 163.137C225.324 163.137 224.699 162.017 224.699 160.495C224.699 158.972 225.324 157.847 226.545 157.847C227.744 157.847 228.369 158.972 228.369 160.495C228.369 162.017 227.744 163.137 226.545 163.137ZM233.906 164.841H236.463L237.963 159.353H238.071L239.571 164.841H242.133L244.503 156.114H242.06L240.73 161.944H240.656L239.224 156.114H236.821L235.412 161.978H235.332L233.98 156.114H231.531L233.906 164.841ZM248.214 153.205H245.794V164.841H248.214V153.205ZM254.131 165.012C256.29 165.012 257.744 163.961 258.085 162.341L255.847 162.194C255.602 162.858 254.977 163.205 254.17 163.205C252.96 163.205 252.193 162.404 252.193 161.103V161.097H258.136V160.432C258.136 157.466 256.341 156 254.034 156C251.466 156 249.801 157.824 249.801 160.517C249.801 163.284 251.443 165.012 254.131 165.012ZM252.193 159.597C252.244 158.603 253 157.807 254.074 157.807C255.125 157.807 255.852 158.557 255.858 159.597H252.193ZM262.932 164.983C264.341 164.983 265.074 164.171 265.409 163.444H265.511V164.841H267.898V153.205H265.483V157.58H265.409C265.085 156.87 264.386 156 262.926 156C261.011 156 259.392 157.489 259.392 160.489C259.392 163.409 260.943 164.983 262.932 164.983ZM263.699 163.057C262.511 163.057 261.864 162 261.864 160.478C261.864 158.966 262.5 157.927 263.699 157.927C264.875 157.927 265.534 158.921 265.534 160.478C265.534 162.034 264.864 163.057 263.699 163.057ZM273.82 168.296C276.314 168.296 278.087 167.159 278.087 164.927V156.114H275.683V157.58H275.592C275.268 156.87 274.558 156 273.098 156C271.183 156 269.564 157.489 269.564 160.461C269.564 163.364 271.138 164.716 273.104 164.716C274.496 164.716 275.274 164.017 275.592 163.296H275.695V164.892C275.695 166.091 274.928 166.557 273.876 166.557C272.808 166.557 272.268 166.091 272.07 165.563L269.831 165.864C270.121 167.239 271.467 168.296 273.82 168.296ZM273.871 162.898C272.683 162.898 272.035 161.955 272.035 160.449C272.035 158.966 272.672 157.927 273.871 157.927C275.047 157.927 275.706 158.921 275.706 160.449C275.706 161.989 275.035 162.898 273.871 162.898ZM283.99 165.012C286.149 165.012 287.604 163.961 287.945 162.341L285.706 162.194C285.462 162.858 284.837 163.205 284.03 163.205C282.82 163.205 282.053 162.404 282.053 161.103V161.097H287.996V160.432C287.996 157.466 286.2 156 283.893 156C281.325 156 279.66 157.824 279.66 160.517C279.66 163.284 281.303 165.012 283.99 165.012ZM282.053 159.597C282.104 158.603 282.859 157.807 283.933 157.807C284.984 157.807 285.712 158.557 285.717 159.597H282.053Z" fill="black"/>
<rect x="28.0952" y="202.286" width="436.609" height="76.7936" fill="#F2E8D4"/>
<path d="M204.434 229.999H201.974V241.635H204.434V229.999ZM208.833 236.59C208.839 235.465 209.509 234.805 210.486 234.805C211.458 234.805 212.043 235.442 212.038 236.51V241.635H214.458V236.078C214.458 234.044 213.265 232.794 211.447 232.794C210.151 232.794 209.214 233.43 208.822 234.448H208.719V232.908H206.413V241.635H208.833V236.59ZM221.059 232.908H219.326V232.323C219.326 231.732 219.565 231.385 220.275 231.385C220.565 231.385 220.86 231.448 221.053 231.51L221.479 229.692C221.178 229.601 220.513 229.453 219.769 229.453C218.127 229.453 216.905 230.379 216.905 232.277V232.908H215.673V234.726H216.905V241.635H219.326V234.726H221.059V232.908ZM226.168 241.805C228.816 241.805 230.464 239.993 230.464 237.305C230.464 234.601 228.816 232.794 226.168 232.794C223.521 232.794 221.873 234.601 221.873 237.305C221.873 239.993 223.521 241.805 226.168 241.805ZM226.18 239.93C224.958 239.93 224.333 238.811 224.333 237.288C224.333 235.766 224.958 234.641 226.18 234.641C227.378 234.641 228.003 235.766 228.003 237.288C228.003 238.811 227.378 239.93 226.18 239.93ZM232.038 241.635H234.458V236.698C234.458 235.624 235.242 234.885 236.31 234.885C236.646 234.885 237.106 234.942 237.333 235.016V232.868C237.117 232.817 236.816 232.783 236.572 232.783C235.594 232.783 234.793 233.351 234.475 234.43H234.384V232.908H232.038V241.635ZM238.584 241.635H241.005V236.396C241.005 235.43 241.619 234.788 242.425 234.788C243.221 234.788 243.755 235.334 243.755 236.192V241.635H246.101V236.305C246.101 235.402 246.619 234.788 247.499 234.788C248.272 234.788 248.851 235.271 248.851 236.243V241.635H251.266V235.766C251.266 233.874 250.141 232.794 248.516 232.794C247.238 232.794 246.244 233.448 245.886 234.448H245.795C245.516 233.436 244.624 232.794 243.425 232.794C242.249 232.794 241.357 233.419 240.994 234.448H240.891V232.908H238.584V241.635ZM255.667 241.8C256.957 241.8 257.792 241.237 258.218 240.425H258.286V241.635H260.582V235.749C260.582 233.669 258.82 232.794 256.877 232.794C254.786 232.794 253.411 233.794 253.076 235.385L255.315 235.567C255.479 234.987 255.996 234.561 256.866 234.561C257.69 234.561 258.161 234.976 258.161 235.692V235.726C258.161 236.288 257.565 236.362 256.048 236.51C254.32 236.669 252.769 237.249 252.769 239.198C252.769 240.925 254.002 241.8 255.667 241.8ZM256.36 240.129C255.616 240.129 255.082 239.783 255.082 239.118C255.082 238.436 255.644 238.101 256.496 237.982C257.025 237.908 257.888 237.783 258.178 237.59V238.516C258.178 239.43 257.423 240.129 256.36 240.129ZM267.101 232.908H265.459V230.817H263.039V232.908H261.846V234.726H263.039V239.271C263.028 240.982 264.192 241.828 265.948 241.754C266.573 241.732 267.016 241.607 267.261 241.527L266.88 239.726C266.761 239.749 266.505 239.805 266.278 239.805C265.795 239.805 265.459 239.624 265.459 238.953V234.726H267.101V232.908ZM268.678 241.635H271.099V232.908H268.678V241.635ZM269.894 231.783C270.616 231.783 271.207 231.232 271.207 230.555C271.207 229.885 270.616 229.334 269.894 229.334C269.178 229.334 268.587 229.885 268.587 230.555C268.587 231.232 269.178 231.783 269.894 231.783ZM276.981 241.805C279.628 241.805 281.276 239.993 281.276 237.305C281.276 234.601 279.628 232.794 276.981 232.794C274.333 232.794 272.685 234.601 272.685 237.305C272.685 239.993 274.333 241.805 276.981 241.805ZM276.992 239.93C275.771 239.93 275.146 238.811 275.146 237.288C275.146 235.766 275.771 234.641 276.992 234.641C278.191 234.641 278.816 235.766 278.816 237.288C278.816 238.811 278.191 239.93 276.992 239.93ZM285.271 236.59C285.276 235.465 285.947 234.805 286.924 234.805C287.896 234.805 288.481 235.442 288.475 236.51V241.635H290.896V236.078C290.896 234.044 289.702 232.794 287.884 232.794C286.589 232.794 285.651 233.43 285.259 234.448H285.157V232.908H282.85V241.635H285.271V236.59Z" fill="black"/>
<rect x="-22.4762" y="279.079" width="537.556" height="76.7936" fill="#F8F0DE"/>
<path d="M233.227 318.429C236.772 318.429 238.92 316.235 238.92 312.599C238.92 308.974 236.772 306.792 233.261 306.792H229.102V318.429H233.227ZM231.562 316.321V308.9H233.13C235.312 308.9 236.466 310.014 236.466 312.599C236.466 315.196 235.312 316.321 233.125 316.321H231.562ZM243.186 318.593C244.476 318.593 245.311 318.031 245.737 317.218H245.805V318.429H248.101V312.542C248.101 310.463 246.339 309.588 244.396 309.588C242.305 309.588 240.93 310.588 240.595 312.179L242.834 312.36C242.998 311.781 243.515 311.355 244.385 311.355C245.209 311.355 245.68 311.769 245.68 312.485V312.519C245.68 313.082 245.084 313.156 243.566 313.304C241.839 313.463 240.288 314.042 240.288 315.991C240.288 317.718 241.521 318.593 243.186 318.593ZM243.879 316.923C243.135 316.923 242.601 316.576 242.601 315.912C242.601 315.23 243.163 314.894 244.015 314.775C244.544 314.701 245.407 314.576 245.697 314.383V315.309C245.697 316.224 244.941 316.923 243.879 316.923ZM254.62 309.701H252.978V307.61H250.558V309.701H249.365V311.519H250.558V316.065C250.547 317.775 251.711 318.622 253.467 318.548C254.092 318.525 254.535 318.4 254.78 318.321L254.399 316.519C254.28 316.542 254.024 316.599 253.797 316.599C253.314 316.599 252.978 316.417 252.978 315.747V311.519H254.62V309.701ZM258.686 318.593C259.976 318.593 260.811 318.031 261.237 317.218H261.305V318.429H263.601V312.542C263.601 310.463 261.839 309.588 259.896 309.588C257.805 309.588 256.43 310.588 256.095 312.179L258.334 312.36C258.498 311.781 259.015 311.355 259.885 311.355C260.709 311.355 261.18 311.769 261.18 312.485V312.519C261.18 313.082 260.584 313.156 259.066 313.304C257.339 313.463 255.788 314.042 255.788 315.991C255.788 317.718 257.021 318.593 258.686 318.593ZM259.379 316.923C258.635 316.923 258.101 316.576 258.101 315.912C258.101 315.23 258.663 314.894 259.515 314.775C260.044 314.701 260.907 314.576 261.197 314.383V315.309C261.197 316.224 260.441 316.923 259.379 316.923Z" fill="black"/>
</g>
</svg>
